# xmcd CD database file
#
# Track frame offsets:
#	150
#	14727
#	27886
#	41979
#	53598
#	67673
#	81683
#	94323
#	107746
#	121586
#	133643
#	147628
#	161992
#	176500
#	190801
#	204958
#	217186
#	230922
#	243460
#	257847
#
# Disc length: 3635 seconds
#
# Revision: 1
# Processed by: cddbd v1.5.2PL0 Copyright (c) Steve Scherf et al.
# Submitted via: CDex 1.83
#
DISCID=2f0e3114
DTITLE=Ma Rainey - The Essential Recordings CD01
DYEAR=2016
DGENRE=Blues
TTITLE0=See See Rider Blues
TTITLE1=Stack O'Lee Blues
TTITLE2=Bad Luck Blues
TTITLE3=BoWeavil Blues
TTITLE4=Those All Night Long Blues
TTITLE5=Moonshine Blues
TTITLE6=Honey, Where You Been So Long
TTITLE7=Ya Da Do
TTITLE8=Lucky Rock Blues
TTITLE9=Shave 'Em Dry Blues
TTITLE10=Farewell Daddy Blues
TTITLE11=Booze And Blues
TTITLE12=Jealous Hearted Blues
TTITLE13=Jelly Bean Blues
TTITLE14=Countin' The Blues
TTITLE15=Slave To The Blues
TTITLE16=Yonder Come The Blues
TTITLE17=Titanic Man Blues
TTITLE18=Chain Gang Blues
TTITLE19=Oh My Babe Blues
EXTD=YEAR: 2016
EXTT0=
EXTT1=
EXTT2=
EXTT3=
EXTT4=
EXTT5=
EXTT6=
EXTT7=
EXTT8=
EXTT9=
EXTT10=
EXTT11=
EXTT12=
EXTT13=
EXTT14=
EXTT15=
EXTT16=
EXTT17=
EXTT18=
EXTT19=
PLAYORDER=
